# xmcd
#
# Track frame offsets: 
#        150
#        23548
#        36053
#        52252
#        77452
#        92452
#        107798
#        120885
#        136034
#        152121
#
# Disc length: 2174 seconds
#
# Revision: 1
# Processed by: cddbd v1.5.2PL0 Copyright (c) Steve Scherf et al.
# Submitted via: ExactAudioCopyFreeDBPlugin 1.0
#
DISCID=69087c0a
DTITLE=Red Foot - The Road
DYEAR=2013
DGENRE=Rock
TTITLE0=Keep Going Away
TTITLE1=Where is My Rock'n Roll
TTITLE2=Heartbreaker
TTITLE3=Song for You
TTITLE4=Red Foot Stomp
TTITLE5=I Gotta Keep on Running
TTITLE6=Rockin Boy
TTITLE7=I Just Can't Be Your Man
TTITLE8=The Road
TTITLE9=Mark foi ao Bar
EXTD=
EXTT0=
EXTT1=
EXTT2=
EXTT3=
EXTT4=
EXTT5=
EXTT6=
EXTT7=
EXTT8=
EXTT9=
PLAYORDER=
